<?xml version="1.0" encoding="utf-8"?>
<!-- Generator: Adobe Illustrator 15.0.0, SVG Export Plug-In . SVG Version: 6.00 Build 0)  -->
<!DOCTYPE svg PUBLIC "-//W3C//DTD SVG 1.1//EN" "http://www.w3.org/Graphics/SVG/1.1/DTD/svg11.dtd">
<svg version="1.1" id="Layer_1" xmlns="http://www.w3.org/2000/svg" xmlns:xlink="http://www.w3.org/1999/xlink" x="0px" y="0px"
	 width="715.111px" height="715.111px" viewBox="0 0 715.111 715.111" enable-background="new 0 0 715.111 715.111"
	 xml:space="preserve">
<g>
	<path fill="#FFB53A" d="M357.629,48c169.303-0.012,307.5,136.239,309.461,305.98c1.975,170.95-135.009,311.135-305.959,313.11
		c-1.21,0.014-2.441,0.021-3.648,0.021c-169.304,0-307.5-136.241-309.461-305.98C46.046,190.179,183.029,49.996,353.98,48.021
		C355.19,48.007,356.422,48,357.629,48 M357.652,0h-0.026c-1.387,0-2.806,0.008-4.201,0.024
		c-48.244,0.557-94.963,10.558-138.856,29.724c-42.373,18.502-80.306,44.716-112.746,77.915
		c-32.44,33.199-57.771,71.727-75.29,114.516C8.386,266.503-0.533,313.44,0.024,361.687c0.553,47.902,10.42,94.314,29.326,137.946
		c18.251,42.121,44.129,79.9,76.915,112.288c32.768,32.37,70.839,57.777,113.157,75.519c43.802,18.361,90.251,27.673,138.061,27.673
		c1.391,0,2.809-0.009,4.203-0.024c48.245-0.558,94.964-10.559,138.856-29.725c42.372-18.502,80.306-44.716,112.746-77.915
		c32.439-33.198,57.771-71.729,75.29-114.517c18.146-44.323,27.064-91.261,26.509-139.505
		c-0.554-47.901-10.42-94.312-29.324-137.943c-18.25-42.121-44.126-79.899-76.909-112.288
		c-32.766-32.371-70.835-57.78-113.149-75.521C451.904,9.311,405.457,0,357.652,0L357.652,0z"/>
</g>
<polygon fill="#FFB53A" points="430.749,356.555 592.927,213.062 592.927,500.047 "/>
<polygon fill="#FFB53A" points="284.398,356.555 122.22,213.062 122.22,500.047 "/>
<polygon fill="#FFB53A" points="141.493,187.198 574.122,187.198 357.782,375.832 "/>
<polygon fill="#FFB53A" points="357.781,431.22 306.041,386.095 141.493,529.569 574.122,529.569 409.573,386.06 "/>
</svg>
